<svg height='300px' width='300px'  fill="#000000" xmlns="http://www.w3.org/2000/svg" xmlns:xlink="http://www.w3.org/1999/xlink" version="1.1" x="0px" y="0px" viewBox="0 0 100 100" enable-background="new 0 0 100 100" xml:space="preserve"><path d="M60,56v-7.586l-2-2l4-4V57c0,0.552-0.448,1-1,1H46.414l2-2H60z M64,66H38.414l-2,2H65c0.552,0,1-0.448,1-1V38.414l-2,2V66z   M73.707,27.707l-46,46c-0.39,0.391-1.024,0.391-1.414,0c-0.391-0.391-0.391-1.023,0-1.414L32,66.586V29c0-0.552,0.448-1,1-1h32  c0.552,0,1,0.448,1,1v3.586l6.293-6.293c0.391-0.391,1.023-0.391,1.414,0S74.098,27.316,73.707,27.707z M34,64.586L40.586,58H37  c-0.552,0-1-0.448-1-1V33c0-0.552,0.448-1,1-1h24c0.552,0,1,0.448,1,1v3.586l2-2V30H34V64.586z M54.707,43.121  c-0.391-0.391-1.023-0.391-1.414,0L46,50.414l-3.334-3.334c-0.391-0.391-1.024-0.391-1.414,0L38,50.331V56h4.586l12.5-12.5  L54.707,43.121z"></path></svg>